<svg version="1.1" xmlns="http://www.w3.org/2000/svg" style="display: block;" viewBox="0 0 2048 2048" width="1024" height="1024" preserveAspectRatio="none">
<defs>
	<linearGradient id="Gradient1" gradientUnits="userSpaceOnUse" x1="158.02" y1="2060.94" x2="163.555" y2="2010.26">
		<stop class="stop0" offset="0" stop-opacity="1" stop-color="rgb(162,162,160)"/>
		<stop class="stop1" offset="1" stop-opacity="1" stop-color="rgb(218,218,213)"/>
	</linearGradient>
</defs>
<path transform="translate(0,0)" fill="rgb(253,253,246)" d="M 0 0 L 2048 0 L 2048 2048 L 637.689 2048 L 0 2048 L 0 1958.84 L 0 0 z"/>
<path transform="translate(0,0)" fill="url(#Gradient1)" d="M 0 1958.84 C 0.823471 1959.68 1.64694 1960.52 2.47041 1961.36 C 3.69392 1970.12 3.13837 1990.79 3.05966 1998.74 L 3 2004.51 C 12.2074 2004.63 27.0781 2007.1 33.3302 2000.79 C 35.8441 2002.44 37.2739 2006.96 38.2554 2009.65 C 41.0117 2009.68 41.2607 2010.01 43.4279 2008.49 C 44.4927 2005.36 44.8226 2003 47.4216 2001.11 C 52.3831 2002.49 50.7907 2006.03 52.507 2009.64 L 53.7368 2006.97 C 59.4932 2003.19 64.1752 2003.7 68.9196 2008.61 C 72.5195 2004.42 75.089 2004.98 80.1267 2005.33 C 80.0626 2002.41 79.7699 2002.18 81.0532 1999.66 L 82.9624 1999.36 C 85.0783 2000.92 85.0096 2003.66 86.5029 2007.2 C 92.7842 2004.68 93.8904 2002.77 99.8717 2007.16 C 104.081 2007.52 105.55 2006.73 109.576 2005.36 C 112.76 2006.36 113.35 2007.77 114.066 2011.24 C 115.258 2008.38 115.977 2005.56 119.182 2004.73 C 121.3 2006.35 121.35 2007.54 122.116 2009.98 L 123.703 2010.8 C 124.579 2008 124.4 2007.53 126.425 2005.54 C 128.636 2005.52 129.727 2005.35 131.847 2004.72 L 132.53 2002.39 L 132.192 2002.01 L 130.923 2003.79 L 129.367 2002.75 C 129.804 1999.9 129.075 2000.9 131.125 1999.37 C 132.893 1999.76 132.049 1999.49 133.591 2001.41 L 133.268 2000.39 C 135.193 2003.81 134.911 2005.8 133.867 2009.74 L 135.072 2008.17 L 136.397 2008.39 C 137.387 2012.69 137.031 2017.39 139.514 2020.01 L 142.494 2020.98 C 144.299 2018.71 143.734 2019.39 146.259 2017.7 C 145.82 2011.68 145.926 2007.73 146.118 2001.73 L 145.594 2000.76 L 148.125 2000.76 C 150.27 2003.7 165.426 2013.54 169.698 2012.93 C 179.528 2006.23 170.56 1984.02 193.996 1986.66 C 195.001 1986.77 195.47 1987.09 196.297 1987.52 C 198.902 1995.59 189.409 2003.62 192.088 2006 C 195.474 2006.07 199.92 2005.58 202.409 2007.08 C 202.422 2010.79 200.176 2014.61 200.504 2016.92 L 202.296 2017.78 L 203.646 2017.1 L 204.17 2015.24 C 205.627 2010.21 205.863 2009.95 209.173 2006.05 L 209.073 2004.38 C 204.189 2002.81 202.536 2003.23 199.72 1999.92 C 197.754 1983.59 216.022 1984.93 226.727 1990.07 C 229.22 1991.27 234.659 2004.79 231.367 2006.9 C 228.265 2012.4 226.478 2014.4 222.707 2018.55 C 228.533 2019.41 264.933 2025.35 267.624 2026.98 L 268.551 2026.24 C 267.95 2022.87 267.758 2020.44 266.172 2017.39 C 264.767 2018.55 263.689 2019.52 262.361 2020.77 C 256.688 2021.29 254.009 2020.14 250.996 2020.39 C 245.194 2020.86 244.709 2021.21 238 2021 C 237.834 2014.25 236.339 2005.37 240.376 2000.75 C 243.49 2000.84 242.117 2000.32 244.527 2002.62 C 246.12 2009.58 244.059 2014.41 247.836 2016.86 C 247.882 2016.98 247.927 2017.09 247.972 2017.2 L 247.841 2019.92 L 251.769 2017.67 C 255.414 2019.86 255.896 2020.15 260.025 2019.81 C 263.603 2018.12 263.902 2017.06 266.012 2013.75 L 267.504 2016.05 C 268.299 2010.31 269.472 2004.94 276.92 2004.89 C 280.183 2006.12 279.235 2005.31 281.433 2007.64 L 282.028 2014.53 L 284.751 2015.02 C 284.836 2015.33 284.942 2015.63 285.067 2015.93 C 283.308 2018.09 281.134 2025.22 281.59 2028.13 C 282.354 2029.24 283.904 2031.48 285.257 2031.77 C 297.797 2034.49 311.416 2041.48 323.185 2044.31 C 326.386 2045.08 342.5 2044.79 346.347 2044.78 L 391.657 2044.78 L 580.001 2044.94 C 590.152 2044.93 627.111 2044.05 633.552 2046.46 L 637.689 2048 L 0 2048 L 0 1958.84 z"/>
<path transform="translate(0,0)" fill="rgb(231,231,230)" d="M 68.9196 2008.61 C 72.5195 2004.42 75.089 2004.98 80.1267 2005.33 C 80.0626 2002.41 79.7699 2002.18 81.0532 1999.66 L 82.9624 1999.36 C 85.0783 2000.92 85.0096 2003.66 86.5029 2007.2 C 92.7842 2004.68 93.8904 2002.77 99.8717 2007.16 C 100.086 2011.12 100.887 2011.68 99.0127 2013.91 L 94.7642 2014.35 L 94.9152 2014.35 L 92.537 2014.59 L 96.7018 2015.27 L 98.3268 2017.84 L 97.587 2019.65 C 94.641 2020.89 94.1059 2020.43 90.9504 2019.78 C 88.0781 2017.21 87.6722 2016.67 85.2687 2013.59 L 84.2606 2013.96 L 83.5081 2018.81 C 78.7509 2022.11 74.5696 2020.72 70.5941 2016.82 C 69.1849 2013.83 69.2342 2011.87 68.9196 2008.61 z"/>
<path transform="translate(0,0)" fill="rgb(205,204,200)" d="M 74.5761 2008.63 C 76.9619 2007.46 79.8494 2008.37 81.1364 2010.69 C 82.4235 2013.02 81.6565 2015.95 79.3939 2017.34 C 77.8308 2018.31 75.8635 2018.34 74.2748 2017.41 C 72.6861 2016.49 71.7338 2014.77 71.7968 2012.93 C 71.8598 2011.1 72.9279 2009.45 74.5761 2008.63 z"/>
<path transform="translate(0,0)" fill="rgb(252,252,251)" d="M 267.504 2016.05 C 268.299 2010.31 269.472 2004.94 276.92 2004.89 C 280.183 2006.12 279.235 2005.31 281.433 2007.64 L 282.028 2014.53 C 282.187 2021.75 278.97 2029.36 270.573 2027.06 C 268.921 2025.2 269.393 2025.4 268.553 2022.75 L 269.289 2021.9 C 272.378 2022.44 273.052 2022.75 276.19 2022.34 L 277.401 2020.62 C 276.714 2020.54 276.028 2020.45 275.343 2020.35 C 269.999 2019.58 270.18 2019.62 267.504 2016.05 z"/>
<path transform="translate(0,0)" fill="rgb(231,231,230)" d="M 33.0224 2025.86 C 31.9045 2019.56 30.6647 2009.3 32.2179 2003.12 L 33.4606 2002.7 C 35.3599 2005 37.2988 2008.57 38.2554 2009.65 C 41.0117 2009.68 41.2607 2010.01 43.4279 2008.49 C 45.2832 2005.95 45.6179 2005.19 48.1158 2003.23 L 49.5669 2003.93 C 51.0238 2009.98 50.4178 2013.35 48.4532 2019.31 L 47.8331 2019.88 C 46.6342 2015.02 47.4298 2013.57 46.6462 2009.67 L 46.1481 2010.99 C 44.395 2015.57 44.2969 2016.28 41.3517 2019.98 L 40.0059 2019.91 C 37.2043 2016.67 37.1134 2015.26 35.81 2011.03 L 36.1162 2011.48 C 34.2512 2014.53 33.5892 2022.06 33.0224 2025.86 z"/>
<path transform="translate(0,0)" fill="rgb(231,231,230)" d="M 53.7368 2006.97 C 58.2126 2006.29 59.5308 2005.83 63.8737 2006.6 C 68.361 2010.28 67.0667 2013.48 66.7173 2019.17 C 62.1883 2019.73 59.4104 2020.48 55.0629 2019.08 C 51.3291 2015.69 51.896 2014.47 52.507 2009.64 L 53.7368 2006.97 z"/>
<path transform="translate(0,0)" fill="rgb(205,204,200)" d="M 57.5677 2008.64 C 60.098 2007.56 63.0172 2008.75 64.0781 2011.29 C 65.1389 2013.82 63.9373 2016.74 61.3982 2017.79 C 58.874 2018.83 55.9806 2017.64 54.926 2015.12 C 53.8713 2012.6 55.0523 2009.7 57.5677 2008.64 z"/>
<path transform="translate(0,0)" fill="rgb(231,231,230)" d="M 114.066 2011.24 C 115.258 2008.38 115.977 2005.56 119.182 2004.73 C 121.3 2006.35 121.35 2007.54 122.116 2009.98 L 123.703 2010.8 L 124.458 2013.12 C 125.33 2010.63 125.646 2008.18 127.356 2006.88 C 127.821 2011.58 127.321 2014.98 124.887 2019.08 L 122.956 2019.87 C 120.072 2017.58 120.707 2016.33 119.911 2011.69 C 117.253 2013.87 116.643 2016.41 115.031 2019.41 L 113.322 2019.57 C 111.412 2016.09 109.075 2011.24 110.038 2007.33 C 112.429 2008.44 112.462 2009.03 114.066 2011.24 z"/>
<path transform="translate(0,0)" fill="rgb(252,252,251)" d="M 247.841 2019.92 C 245.168 2019.96 243.183 2019.82 240.55 2019.62 C 239.069 2015.48 239.812 2007.19 240.615 2002.88 L 242.261 2002.48 C 244.885 2006.56 242.082 2010.86 244.968 2016.43 L 247.972 2017.2 L 247.841 2019.92 z"/>
<path transform="translate(0,0)" fill="rgb(252,252,251)" d="M 146.118 2001.73 C 146.465 2002.23 148.894 2005.77 148.858 2005.76 C 157.788 2007.89 158.971 2006.74 157.298 2019.07 L 156.65 2019.54 C 156.137 2015.73 156.762 2011.5 154.579 2008.62 C 151.519 2006.88 153.04 2007.06 149.984 2007.44 C 147.324 2011.26 148.66 2013.9 147.372 2018.9 L 146.259 2017.7 C 145.82 2011.68 145.926 2007.73 146.118 2001.73 z"/>
<path transform="translate(0,0)" fill="rgb(231,231,230)" d="M 131.847 2004.72 L 132.53 2002.39 L 132.192 2002.01 L 130.923 2003.79 L 129.367 2002.75 C 129.804 1999.9 129.075 2000.9 131.125 1999.37 C 132.893 1999.76 132.049 1999.49 133.591 2001.41 L 133.268 2000.39 C 135.193 2003.81 134.911 2005.8 133.867 2009.74 L 133.876 2010.42 C 133.948 2013.98 134.46 2016.28 132.667 2019.29 C 129.167 2016.57 129.52 2008.18 131.847 2004.72 z"/>
<path transform="translate(0,0)" fill="rgb(252,252,251)" d="M 205.819 1988.49 C 214.97 1988.35 224.681 1987.8 229.351 1997.7 C 230.97 2001.07 231.006 2004.99 229.449 2008.39 C 226.863 2014.01 221.632 2017.04 216.011 2018.86 C 211.207 2019.64 206.916 2021.69 204.95 2016.8 C 206.064 2012.17 211.314 2005.28 214.226 2000.97 L 199.559 2000.83 C 201.604 1995.7 202.444 1993.01 205.819 1988.49 z"/>
<path transform="translate(0,0)" fill="rgb(252,252,251)" d="M 182.732 1988.49 L 196.204 1988.49 L 189.194 2007.48 L 201.581 2007.89 C 199.033 2014.59 196.029 2021.57 193.285 2028.23 C 190.418 2024.73 193.522 2024.16 191.08 2020.7 C 185.46 2019.49 175.711 2019.92 169.592 2019.97 C 172.752 2011.3 178.62 1996.66 182.732 1988.49 z"/>
<path transform="translate(0,0)" fill="rgb(252,252,251)" d="M 284.751 2015.02 C 283.731 2011.27 285.862 2007.39 289.569 2006.25 C 293.276 2005.1 297.225 2007.1 298.494 2010.77 C 299.764 2014.44 297.898 2018.45 294.276 2019.84 C 290.653 2021.23 286.58 2019.5 285.067 2015.93 C 284.942 2015.63 284.836 2015.33 284.751 2015.02 z"/>
<path transform="translate(0,0)" fill="rgb(252,252,251)" d="M 251.769 2017.67 C 251.535 2015.92 251.223 2014.37 250.895 2012.63 C 251.982 2009.21 251.781 2009.16 254.627 2006.74 C 261.917 2004.79 263.579 2007.45 266.012 2013.75 C 263.902 2017.06 263.603 2018.12 260.025 2019.81 C 255.896 2020.15 255.414 2019.86 251.769 2017.67 z"/>
<path transform="translate(0,0)" fill="rgb(205,204,200)" d="M 142.494 2020.98 C 138.62 2015.98 139.14 2014.75 140.296 2008.73 L 140.583 2007.3 C 139.181 2003.56 140.367 2004.91 137.053 2002.97 L 137.668 2002.03 C 140.386 2002.38 141.202 2003.67 143.176 2005.64 L 143.123 2007.37 L 144.604 2006.36 C 144.378 2003.55 144.638 2003.49 145.594 2000.76 L 146.118 2001.73 C 145.926 2007.73 145.82 2011.68 146.259 2017.7 C 143.734 2019.39 144.299 2018.71 142.494 2020.98 z"/>
<path transform="translate(0,0)" fill="rgb(1,198,80)" d="M 1519.35 899.995 C 1527.78 911.868 1554.43 949.582 1560.26 961.806 L 1531.09 961.69 L 1531.16 1146.85 L 1007.17 1147.03 L 1007.13 1038.63 C 1007.13 1021.4 1006.47 998.754 1007.36 982.051 L 979.06 982.057 C 978.483 972.677 978.147 966.348 978.587 957.028 C 988.091 957.013 997.857 956.874 1007.33 957.011 L 1006.99 933.438 L 1033.61 933.032 L 1033.91 1121.16 L 1319.59 1121.45 L 1436.13 1121.2 C 1456.67 1121.17 1485.12 1120.32 1505.05 1121.67 L 1505.02 961.731 L 1478.48 961.64 C 1482.87 952.633 1512.62 907.544 1519.35 899.995 z"/>
<path transform="translate(0,0)" fill="rgb(0,25,55)" d="M 977.797 1146.54 C 966.173 1147.3 948.105 1146.76 936.151 1146.77 L 855.403 1146.71 L 807.6 1146.71 C 798.996 1146.72 784.691 1147.22 776.755 1145.8 C 771.248 1140.19 773.293 1099.37 773.296 1089.75 L 773.376 1002.46 L 773.318 936.844 C 773.294 924.232 772.99 911.501 773.68 898.924 C 774.469 890.566 774.999 886.598 784.493 886.711 C 848.525 887.476 913.593 885.254 977.534 887.113 C 979.684 900.632 978.645 941.617 978.587 957.028 C 978.147 966.348 978.483 972.677 979.06 982.057 L 953.021 982.08 L 953.047 912.579 C 904.069 910.906 849.185 912.593 799.399 912.017 C 800.488 980.545 799.325 1052.45 799.342 1121.28 L 953.066 1121.81 C 952.618 1082.14 953.087 1041.83 952.947 1002.07 L 978.068 1002.06 C 979.402 1026.91 978.288 1057.57 978.459 1082.94 C 978.575 1100.13 979.645 1131.05 977.797 1146.54 z"/>
<path transform="translate(0,0)" fill="rgb(0,25,55)" d="M 709.511 887.014 C 721.78 886.873 734.356 887.028 746.653 887.039 C 746.144 972.512 747.845 1060.39 746.545 1145.42 C 744.257 1147.63 744.615 1146.87 740.25 1146.88 L 709.181 1146.98 C 709.898 1107.28 708.815 1067.29 709.811 1027.46 C 696.529 1027 682.137 1027.17 668.765 1027.08 C 668.195 1066.38 668.841 1107.46 668.893 1146.92 L 631.852 1146.86 L 631.701 984.663 C 631.681 952.825 631.051 918.725 631.937 887.034 L 668.837 886.996 L 668.669 992.951 L 709.302 993.079 C 709.515 957.863 708.932 922.078 709.511 887.014 z"/>
<path transform="translate(0,0)" fill="rgb(1,198,80)" d="M 1171.59 884.286 C 1238.8 878.866 1230.72 941.858 1229.68 987.543 C 1228.68 1031.51 1243.21 1087.45 1185.23 1096.76 C 1146.16 1100.35 1125.13 1078.17 1125.91 1039.57 C 1125.87 1013.37 1126.38 986.775 1125.99 960.613 C 1125.4 921.859 1125.27 891.88 1171.59 884.286 z"/>
<path transform="translate(0,0)" fill="rgb(252,252,251)" d="M 1173.03 913.201 C 1193.55 911.358 1195.3 923.99 1195.02 941.577 C 1194.43 979.543 1196.47 1018.75 1193.92 1056.63 C 1193.62 1061.04 1186.37 1065.62 1182.9 1067.76 C 1179.18 1068.05 1174.93 1067.95 1171.37 1066.75 C 1167.65 1065.49 1164.38 1062.9 1162.75 1059.26 C 1159.66 1052.4 1159.46 929.255 1162.51 921.112 C 1164.19 916.592 1168.92 914.814 1173.03 913.201 z"/>
<path transform="translate(0,0)" fill="rgb(1,198,80)" d="M 1293.14 884.319 C 1334.82 880.06 1352.7 905.336 1351.36 943.691 C 1350.08 980.26 1353.39 1018.29 1350.42 1054.77 C 1348.25 1081.45 1331 1092.88 1306.65 1096.86 C 1248.02 1099.08 1247.08 1059.96 1248.39 1013.55 C 1248.78 999.827 1248.44 983.165 1248.45 969.357 C 1248.48 930.771 1243.6 891.63 1293.14 884.319 z"/>
<path transform="translate(0,0)" fill="rgb(252,252,251)" d="M 1293.83 913.099 C 1305.39 911.706 1309.37 912.324 1315.79 921.979 C 1317.39 937.891 1318.75 1046.86 1315.25 1058.05 C 1313.72 1062.94 1310.14 1065.08 1305.86 1067.4 C 1292.97 1069.27 1284.01 1064.79 1283.61 1050.68 C 1282.78 1016.37 1283.12 981.935 1283.04 947.603 C 1283 932.585 1280.52 922.002 1293.83 913.099 z"/>
<path transform="translate(0,0)" fill="rgb(1,198,80)" d="M 1412.24 884.298 C 1458.3 880.319 1474.59 906.972 1472.84 949.888 C 1472.11 967.591 1473.19 988.213 1472.63 1006.24 C 1471.45 1044.2 1481.78 1084.92 1432.81 1096.04 C 1386.45 1102.09 1367.07 1076.38 1369.75 1032.63 C 1370.57 1019.08 1369.21 1002.94 1370.01 989.143 C 1372.38 948.39 1356.57 894.35 1412.24 884.298 z"/>
<path transform="translate(0,0)" fill="rgb(252,252,251)" d="M 1418.36 912.14 C 1425.84 912.13 1434.47 915.011 1436.21 922.345 C 1438.45 931.737 1437.82 948.2 1437.79 957.779 C 1437.71 988.836 1438.02 1019.59 1437.59 1050.61 C 1437.44 1061.45 1432.53 1065.26 1422.78 1068.03 C 1420.33 1067.94 1417.77 1067.86 1415.42 1067.1 C 1410.9 1065.64 1407.56 1062.63 1405.78 1058.19 C 1403.27 1051.93 1403.69 942.757 1404.33 929.898 C 1404.49 926.767 1404.58 923.645 1405.94 920.767 C 1408.25 915.897 1413.56 913.679 1418.36 912.14 z"/>
<path transform="translate(0,0)" fill="rgb(0,25,55)" d="M 497.021 887.417 C 535.165 887.791 574.691 887.134 613.035 887.164 C 612.802 898.648 612.876 910.495 612.81 922.011 C 599.732 921.733 586.101 921.918 572.979 921.921 L 573.024 1110.69 L 573.234 1146.87 C 561.119 1146.74 548.647 1146.92 536.501 1146.96 L 536.57 921.636 L 496.92 921.785 L 497.021 887.417 z"/>
<path transform="translate(0,0)" fill="rgb(1,198,80)" d="M 1082.63 886.93 L 1105.99 886.881 C 1105.91 955.934 1105.34 1026.12 1106.13 1095.09 C 1099.55 1095.21 1076.79 1096.22 1072.29 1093.86 L 1071.82 1091.25 C 1071.39 1039.82 1071.39 988.387 1071.82 936.957 C 1062.83 937.39 1053.84 937.736 1044.84 937.996 L 1044.81 914.309 C 1063.5 911.63 1076.58 906.367 1082.63 886.93 z"/>
<path transform="translate(0,0)" fill="rgb(1,198,80)" d="M 1018.29 796.286 C 1025.3 796.25 1032.22 797.983 1038.39 801.324 C 1047.73 806.318 1054.59 814.963 1057.32 825.199 C 1062.7 845.47 1050.68 862.619 1041.56 879.642 C 1034.43 892.96 1026.85 906.148 1019.39 919.288 L 1018.67 919.533 C 1016.14 915.838 1014.17 910.967 1011.95 907.016 C 993.252 873.868 948.332 806.886 1018.29 796.286 z"/>
<path transform="translate(0,0)" fill="rgb(252,252,251)" d="M 1011.97 819.214 C 1021.02 818.041 1029.11 818.454 1034.91 826.495 C 1037.48 830.03 1038.4 834.498 1037.45 838.762 C 1035.89 845.767 1031.74 848.736 1026.18 852.455 C 1004.1 858.224 990.702 832.542 1011.97 819.214 z"/>
<path transform="translate(0,0)" fill="rgb(1,198,80)" d="M 872.994 942.221 C 878.806 941.998 886.141 942.49 892.069 942.74 C 894.319 991.465 892.722 1046.38 893.022 1095.79 C 887.35 1095.67 866.405 1096.61 863.037 1094.71 C 863.448 1057.73 863.013 1019.84 862.996 982.784 L 840.041 983.011 L 839.817 962.421 C 855.586 960.772 865.706 957.254 872.994 942.221 z"/>
<path transform="translate(0,0)" fill="rgb(1,198,80)" d="M 967.037 1211.2 C 976.671 1211.31 986.432 1210.69 994.569 1216.82 C 1004.52 1224.31 1001.24 1235.25 994.495 1243.63 C 986.56 1248.79 976.561 1247.8 967.14 1247.8 L 967.037 1211.2 z"/>
<path transform="translate(0,0)" fill="rgb(252,252,251)" d="M 975.895 1218.79 C 988.26 1218.58 998.183 1224.79 989.657 1237.45 C 985.129 1239.62 981.217 1242.19 976.948 1238.96 C 974.899 1234.19 975.835 1224.65 975.895 1218.79 z"/>
<path transform="translate(0,0)" fill="rgb(1,198,80)" d="M 745.159 1211.24 C 751.986 1211.16 765.975 1210.44 770.811 1215.04 C 772.263 1222.83 763.977 1227.07 773.279 1235.33 C 774.806 1236.68 773.464 1240.92 772.878 1242.91 C 764.684 1249.68 755.779 1248.15 745.292 1247.97 L 745.159 1211.24 z"/>
<path transform="translate(0,0)" fill="rgb(253,253,246)" d="M 753.77 1231.79 C 758.486 1231.97 762.128 1231.2 765.109 1234.96 L 764.472 1239.49 C 761.195 1240.54 758.794 1241.81 755.606 1240.89 C 753.206 1237.37 754.026 1236.88 753.77 1231.79 z"/>
<path transform="translate(0,0)" fill="rgb(253,253,246)" d="M 752.716 1218.34 C 756.271 1218.54 757.95 1218.69 761.439 1219.34 C 764.499 1222.03 763.351 1220.38 764.492 1224.76 C 761.214 1225.56 758.812 1226.5 755.548 1225.84 C 752.91 1223.11 753.626 1222.83 752.716 1218.34 z"/>
<path transform="translate(0,0)" fill="rgb(1,198,80)" d="M 1325.4 1211.34 C 1333.45 1211.01 1343.88 1209.84 1350.29 1215.54 C 1357.21 1221.67 1349.46 1228.87 1345.07 1232.58 L 1349.52 1238.99 C 1351.56 1241.88 1353 1243 1352.93 1246.5 C 1350.34 1248.58 1350.63 1247.83 1346.26 1247.71 C 1340.5 1244.69 1341.75 1237.61 1336.97 1234.24 C 1330.76 1235.57 1336.23 1242.85 1332.42 1247.67 C 1328.25 1248.17 1330.11 1248.52 1326.57 1247.1 C 1325.58 1244.63 1325.52 1216.09 1325.4 1211.34 z"/>
<path transform="translate(0,0)" fill="rgb(253,253,246)" d="M 1333.29 1218.89 C 1337.49 1218.91 1338.18 1218.73 1342.01 1220.16 C 1344.35 1223.58 1343.64 1221.67 1343.57 1226.3 C 1340.29 1226.78 1337.73 1227.59 1334.76 1226.36 C 1332.72 1222.98 1333.41 1223.45 1333.29 1218.89 z"/>
<path transform="translate(0,0)" fill="rgb(1,198,80)" d="M 1036.13 1211.43 C 1041.34 1211.16 1055.13 1210.18 1059.33 1211.66 C 1062.04 1214.26 1061.37 1212.76 1061.89 1216.06 C 1056.92 1222.73 1052.3 1216.45 1045.81 1219.59 C 1044.54 1222.89 1044.71 1221.21 1045.54 1224.83 C 1048.26 1226.71 1053.66 1225.81 1057.44 1226.16 C 1060.3 1228.77 1059.59 1227.25 1060.31 1230.49 C 1055.93 1235.09 1050.82 1231.45 1044.99 1233.26 C 1045.06 1235.64 1045.23 1237.64 1045.42 1239.99 C 1050.91 1243.04 1057.51 1238.93 1062.04 1241.94 C 1062.84 1245 1062.86 1243.45 1061.48 1246.72 C 1057.27 1249.21 1042.82 1247.99 1036.67 1247.92 C 1036.56 1235.76 1036.38 1223.59 1036.13 1211.43 z"/>
<path transform="translate(0,0)" fill="rgb(1,198,80)" d="M 1266.9 1211.5 C 1272.69 1211.33 1283.83 1210.08 1288.1 1212.64 C 1289.58 1216.01 1289.52 1214.38 1288.71 1217.65 C 1283.23 1220.87 1275.8 1216.46 1271.93 1221.92 C 1273.7 1230.4 1280.43 1223.51 1287.13 1228.05 C 1288.16 1230.96 1288.34 1229.65 1287.17 1232.13 C 1281.74 1235.35 1276.83 1230.05 1271.86 1235.2 L 1272.96 1239.13 C 1277.43 1242.75 1286.34 1239.2 1290.17 1244.39 L 1289.06 1246.87 C 1285.92 1248.42 1269.55 1247.9 1264.81 1247.92 C 1264.79 1242.08 1263.99 1216.43 1264.84 1212.31 L 1266.9 1211.5 z"/>
<path transform="translate(0,0)" fill="rgb(1,198,80)" d="M 865.623 1211.1 C 871.999 1211.45 886.853 1210.18 890.883 1213.38 C 889.09 1223.87 882.292 1216.22 873.193 1220.47 L 872.834 1222.1 C 877.823 1226.61 884.514 1226.37 889.278 1230.09 L 888.628 1232.02 C 885.448 1233.28 879.004 1233.11 875.312 1233.22 C 873.343 1235.21 873.988 1234.77 873.008 1237.83 C 875.678 1243.26 884.441 1239.34 891.604 1243.1 C 892.297 1250.25 871.72 1247.93 866.062 1247.97 C 865.811 1235.68 865.665 1223.39 865.623 1211.1 z"/>
<path transform="translate(0,0)" fill="rgb(1,198,80)" d="M 1434.75 1211.31 L 1436.46 1211.27 C 1443.7 1211.12 1455.3 1209.44 1459.95 1213.9 C 1460.37 1217.02 1460.64 1215.51 1458.51 1218.44 C 1455.2 1220.08 1450.12 1218.61 1444.77 1219.18 C 1442.18 1221.36 1442.99 1219.98 1442.6 1223.65 C 1446.28 1226.72 1452.04 1225.98 1458.06 1229.15 L 1458.33 1230.65 L 1456.31 1232.54 C 1450.83 1233.33 1448.29 1232.76 1442.85 1232.11 C 1442.98 1237.1 1442.11 1237.11 1444.57 1240.13 C 1450.13 1242.3 1452.96 1241.13 1459.18 1241.42 L 1460.38 1243.01 L 1459.7 1246.39 C 1456.55 1248.01 1440.06 1247.54 1435.01 1247.59 L 1434.75 1211.31 z"/>
<path transform="translate(0,0)" fill="rgb(1,198,80)" d="M 544.943 1236.54 C 546.849 1231.48 552.318 1214.97 555.116 1211.44 C 558.313 1210.92 558.633 1210.66 561.864 1211.35 C 562.861 1214.21 561.377 1215.66 559.866 1219.39 C 555.866 1227.9 552.743 1241.18 547.345 1247.7 C 537.867 1250.4 529.343 1219.23 526.659 1211.21 C 529.961 1210.97 530.686 1210.78 534.007 1211.31 C 539.814 1215.97 541.747 1228.11 544.943 1236.54 z"/>
<path transform="translate(0,0)" fill="rgb(1,198,80)" d="M 1195.12 1210.94 C 1198.47 1210.89 1199.05 1210.87 1202.52 1211.42 C 1208.21 1215.86 1211.09 1229.49 1213.83 1237.37 C 1217.24 1228.74 1218.98 1214.86 1225.27 1210.42 C 1228.73 1210.28 1227.23 1209.75 1229.86 1212.15 C 1230.65 1216.42 1230 1215.78 1227.91 1220.62 C 1224.12 1229.62 1220.97 1237.65 1218.82 1247.19 L 1208.88 1247.64 C 1204.38 1235.37 1199.79 1223.14 1195.12 1210.94 z"/>
<path transform="translate(0,0)" fill="rgb(1,198,80)" d="M 1505.93 1210.17 C 1511.73 1210.91 1515.28 1211.23 1519.77 1214.99 L 1519.5 1216.44 C 1516.07 1218.31 1508.63 1219.32 1503.75 1221.04 L 1503.21 1222.28 C 1505.41 1223.4 1507.59 1224.58 1509.74 1225.8 C 1514.92 1228.81 1520.03 1232.46 1521.59 1238.39 C 1520.41 1244.83 1512.54 1247.63 1506.64 1248.55 C 1501.26 1247.43 1499.91 1247.35 1495.12 1244.92 C 1493.6 1242.64 1494.17 1243.88 1493.97 1240.94 C 1498.8 1235.95 1508.95 1243.76 1512.45 1238.85 C 1508.47 1232.44 1498.56 1231.55 1494.32 1221.66 C 1494.09 1214.22 1500.06 1212.5 1505.93 1210.17 z"/>
<path transform="translate(0,0)" fill="rgb(1,198,80)" d="M 649.132 1211 C 655.65 1210.44 661.34 1210.09 665.508 1215.42 L 664.947 1217.33 C 660.161 1219.76 652.702 1218.18 650.309 1220.96 C 653.551 1227.88 667.102 1229.03 665.8 1240.38 C 662.4 1245.67 658.801 1246.75 652.873 1248.57 C 645.598 1247.36 643.995 1247.07 639.051 1241.8 L 639.132 1240.2 C 641.571 1238.72 641.978 1238.98 644.912 1238.74 C 648.412 1240.44 650.438 1241.87 654.3 1241.69 C 657.12 1239.75 656.353 1241.01 657.107 1238.09 C 652.904 1230.31 624.634 1223.84 649.132 1211 z"/>
<path transform="translate(0,0)" fill="rgb(252,252,251)" d="M 368.982 2004.41 C 373.571 2004.52 374.139 2004.38 378.332 2005.95 C 377.877 2007.46 377.212 2008.1 376.28 2009.36 C 377.539 2011.3 377.999 2011.77 379.58 2013.49 C 381.628 2009.45 381.416 2007.39 384.544 2005.51 C 386.885 2007.64 385.147 2014.99 387.355 2020.48 L 385.99 2021.7 C 382.712 2021.79 383.768 2021.77 380.484 2018.87 C 375.142 2021.6 372.311 2023.19 367.006 2019.53 C 363.303 2022.74 356.448 2022.57 352.539 2019.12 C 350.937 2015.32 348.374 2007.82 353.333 2005.79 C 355.612 2008.52 354.848 2008.92 355.152 2013.38 C 357.045 2015.81 355.823 2015.23 358.662 2015.61 C 361.538 2012.51 358.973 2012.29 360.226 2006.25 C 363.21 2005.91 361.805 2005.71 364.584 2006.95 L 365.87 2010.36 L 366.625 2010.24 C 365.563 2004.77 367.355 2011.47 368.982 2004.41 z"/>
<path transform="translate(0,0)" fill="rgb(1,198,80)" d="M 1097.69 1211 C 1101.82 1211.02 1102.05 1210.37 1105.17 1212.1 C 1107.89 1217.58 1105.95 1233.01 1105.93 1240.93 C 1114.81 1240.18 1119.64 1237.69 1121.91 1247.18 C 1116.76 1248.45 1103.51 1248.03 1097.59 1248.03 C 1097.98 1236.25 1097.69 1222.89 1097.69 1211 z"/>
<path transform="translate(0,0)" fill="rgb(1,198,80)" d="M 809.048 1210.94 C 812.626 1210.9 813.51 1210.98 817.067 1211.48 C 818.568 1214.41 817.881 1235.85 817.83 1240.88 C 822.122 1240.61 826.508 1239.92 830.535 1241.1 C 833.376 1243.78 832.483 1242.79 832.976 1247.8 L 809.154 1247.92 L 809.048 1210.94 z"/>
<path transform="translate(0,0)" fill="rgb(1,198,80)" d="M 596.121 1211.03 C 598.821 1211.06 600.44 1211.25 603.1 1211.55 C 606.175 1215.48 604.451 1241.79 604.088 1247.95 C 600.631 1248.08 600.513 1248.09 597.134 1247.41 C 595.146 1242.72 596.048 1217.55 596.121 1211.03 z"/>
<path transform="translate(0,0)" fill="rgb(1,198,80)" d="M 1388.9 1210.86 C 1391.49 1210.9 1393.59 1211.12 1396.14 1211.37 C 1398.36 1214.15 1397.29 1242.18 1397.22 1247.93 C 1393.47 1247.92 1391.98 1248.59 1389.34 1246.91 C 1388.39 1239.33 1388.86 1219.41 1388.9 1210.86 z"/>
<path transform="translate(0,0)" fill="rgb(1,198,80)" d="M 1153.58 1211.09 C 1157.09 1211.1 1158.9 1210.59 1161.74 1212.06 C 1162.91 1220.2 1162.61 1239.17 1162.19 1247.52 C 1158.24 1247.84 1158.36 1248.48 1155.51 1246.9 C 1152.51 1240.44 1153.75 1219.79 1153.58 1211.09 z"/>
<path transform="translate(0,0)" fill="rgb(1,198,80)" d="M 700.939 1210.91 C 703.498 1210.93 705.026 1211.12 707.546 1211.4 C 710.102 1214.19 709.017 1242 708.977 1248.05 C 705.539 1248.16 705.467 1248.16 702.101 1247.45 C 699.776 1242.85 700.863 1217.56 700.939 1210.91 z"/>
<path transform="translate(0,0)" fill="rgb(252,252,251)" d="M 306.49 2002.49 C 318.564 2002.25 325.917 2004.45 319.939 2018.2 C 315.442 2020.21 311.465 2019.63 306.49 2019.57 L 306.49 2002.49 z"/>
<path transform="translate(0,0)" fill="rgb(231,231,230)" d="M 310.967 2005.41 C 313.979 2005.84 313.928 2005.98 316.681 2007.4 C 318.571 2010.1 318.082 2012.11 317.973 2015.46 C 314.965 2016.16 315.122 2016.27 312.124 2015.72 C 310.149 2012.59 310.927 2009.68 310.967 2005.41 z"/>
<path transform="translate(0,0)" fill="rgb(252,252,251)" d="M 335.301 1999.98 L 339.186 2000.67 C 339.129 2003.59 339.031 2003.42 340.184 2006.07 C 342.878 2002.01 343.121 2000.71 348.115 2000.49 C 349.077 2003.44 346.655 2018.31 344.548 2020.96 C 343.42 2019.99 343.305 2019.64 342.412 2018.42 C 342.346 2014.61 343.164 2011.05 339.315 2009.47 C 337.302 2011.95 337.461 2015.96 337.185 2019.34 C 335.335 2020.06 336.345 2019.92 334.007 2019.02 C 330.835 2013.94 332.232 2004.99 335.301 1999.98 z"/>
<path transform="translate(0,0)" fill="rgb(252,252,251)" d="M 392.674 2006.82 C 395.877 2005.01 399.939 2005.97 401.987 2009.03 C 404.035 2012.09 403.377 2016.21 400.477 2018.48 C 398.4 2020.11 395.589 2020.43 393.195 2019.33 C 390.801 2018.22 389.226 2015.87 389.116 2013.23 C 389.007 2010.6 390.38 2008.13 392.674 2006.82 z"/>
<path transform="translate(0,0)" fill="rgb(252,252,251)" d="M 322.245 2003.27 C 334.272 2004.25 329.703 2010.71 330.934 2021.02 L 331.071 2022.11 C 328.397 2021.82 327.812 2021.71 325.223 2020.99 C 321.623 2016.04 326.939 2013.27 322.245 2003.27 z"/>
<path transform="translate(0,0)" fill="rgb(252,252,251)" d="M 406.266 2006.38 L 419.51 2006.51 C 419.674 2010.68 420.506 2017.13 417.192 2019.97 C 414.991 2017.46 415.167 2016.23 414.76 2012.91 C 415.452 2011.04 415.211 2011.99 414.661 2009.62 L 413.097 2008.79 C 408.537 2012.09 410.402 2016 407.163 2019.35 L 406.47 2017.06 L 407.887 2016.61 L 408.063 2015.05 L 405.95 2014.64 C 406.157 2011.86 406.199 2009.16 406.266 2006.38 z"/>
</svg>