<?xml version="1.0" encoding="utf-8"?>
<svg xmlns="http://www.w3.org/2000/svg" version="1.1" viewBox="456.92 756.25 1143.34 534.15" width="1200" height="561" preserveAspectRatio="xMidYMid meet">
  <path transform="translate(0,0)" fill="rgb(1,198,80)" d="M 1519.35 899.995 C 1527.78 911.868 1554.43 949.582 1560.26 961.806 L 1531.09 961.69 L 1531.16 1146.85 L 1007.17 1147.03 L 1007.13 1038.63 C 1007.13 1021.4 1006.47 998.754 1007.36 982.051 L 979.06 982.057 C 978.483 972.677 978.147 966.348 978.587 957.028 C 988.091 957.013 997.857 956.874 1007.33 957.011 L 1006.99 933.438 L 1033.61 933.032 L 1033.91 1121.16 L 1319.59 1121.45 L 1436.13 1121.2 C 1456.67 1121.17 1485.12 1120.32 1505.05 1121.67 L 1505.02 961.731 L 1478.48 961.64 C 1482.87 952.633 1512.62 907.544 1519.35 899.995 z"/>
  

  <path transform="translate(0,0)" fill="rgb(0,25,55)" d="M 977.797 1146.54 C 966.173 1147.3 948.105 1146.76 936.151 1146.77 L 855.403 1146.71 L 807.6 1146.71 C 798.996 1146.72 784.691 1147.22 776.755 1145.8 C 771.248 1140.19 773.293 1099.37 773.296 1089.75 L 773.376 1002.46 L 773.318 936.844 C 773.294 924.232 772.99 911.501 773.68 898.924 C 774.469 890.566 774.999 886.598 784.493 886.711 C 848.525 887.476 913.593 885.254 977.534 887.113 C 979.684 900.632 978.645 941.617 978.587 957.028 C 978.147 966.348 978.483 972.677 979.06 982.057 L 953.021 982.08 L 953.047 912.579 C 904.069 910.906 849.185 912.593 799.399 912.017 C 800.488 980.545 799.325 1052.45 799.342 1121.28 L 953.066 1121.81 C 952.618 1082.14 953.087 1041.83 952.947 1002.07 L 978.068 1002.06 C 979.402 1026.91 978.288 1057.57 978.459 1082.94 C 978.575 1100.13 979.645 1131.05 977.797 1146.54 z"/>
  

  <path transform="translate(0,0)" fill="rgb(0,25,55)" d="M 709.511 887.014 C 721.78 886.873 734.356 887.028 746.653 887.039 C 746.144 972.512 747.845 1060.39 746.545 1145.42 C 744.257 1147.63 744.615 1146.87 740.25 1146.88 L 709.181 1146.98 C 709.898 1107.28 708.815 1067.29 709.811 1027.46 C 696.529 1027 682.137 1027.17 668.765 1027.08 C 668.195 1066.38 668.841 1107.46 668.893 1146.92 L 631.852 1146.86 L 631.701 984.663 C 631.681 952.825 631.051 918.725 631.937 887.034 L 668.837 886.996 L 668.669 992.951 L 709.302 993.079 C 709.515 957.863 708.932 922.078 709.511 887.014 z"/>
  

  <path transform="translate(0,0)" fill="rgb(1,198,80)" d="M 1171.59 884.286 C 1238.8 878.866 1230.72 941.858 1229.68 987.543 C 1228.68 1031.51 1243.21 1087.45 1185.23 1096.76 C 1146.16 1100.35 1125.13 1078.17 1125.91 1039.57 C 1125.87 1013.37 1126.38 986.775 1125.99 960.613 C 1125.4 921.859 1125.27 891.88 1171.59 884.286 z"/>
  

  <path transform="translate(0,0)" fill="rgb(252,252,251)" d="M 1173.03 913.201 C 1193.55 911.358 1195.3 923.99 1195.02 941.577 C 1194.43 979.543 1196.47 1018.75 1193.92 1056.63 C 1193.62 1061.04 1186.37 1065.62 1182.9 1067.76 C 1179.18 1068.05 1174.93 1067.95 1171.37 1066.75 C 1167.65 1065.49 1164.38 1062.9 1162.75 1059.26 C 1159.66 1052.4 1159.46 929.255 1162.51 921.112 C 1164.19 916.592 1168.92 914.814 1173.03 913.201 z"/>
  

  <path transform="translate(0,0)" fill="rgb(1,198,80)" d="M 1293.14 884.319 C 1334.82 880.06 1352.7 905.336 1351.36 943.691 C 1350.08 980.26 1353.39 1018.29 1350.42 1054.77 C 1348.25 1081.45 1331 1092.88 1306.65 1096.86 C 1248.02 1099.08 1247.08 1059.96 1248.39 1013.55 C 1248.78 999.827 1248.44 983.165 1248.45 969.357 C 1248.48 930.771 1243.6 891.63 1293.14 884.319 z"/>
  

  <path transform="translate(0,0)" fill="rgb(252,252,251)" d="M 1293.83 913.099 C 1305.39 911.706 1309.37 912.324 1315.79 921.979 C 1317.39 937.891 1318.75 1046.86 1315.25 1058.05 C 1313.72 1062.94 1310.14 1065.08 1305.86 1067.4 C 1292.97 1069.27 1284.01 1064.79 1283.61 1050.68 C 1282.78 1016.37 1283.12 981.935 1283.04 947.603 C 1283 932.585 1280.52 922.002 1293.83 913.099 z"/>
  

  <path transform="translate(0,0)" fill="rgb(1,198,80)" d="M 1412.24 884.298 C 1458.3 880.319 1474.59 906.972 1472.84 949.888 C 1472.11 967.591 1473.19 988.213 1472.63 1006.24 C 1471.45 1044.2 1481.78 1084.92 1432.81 1096.04 C 1386.45 1102.09 1367.07 1076.38 1369.75 1032.63 C 1370.57 1019.08 1369.21 1002.94 1370.01 989.143 C 1372.38 948.39 1356.57 894.35 1412.24 884.298 z"/>
  

  <path transform="translate(0,0)" fill="rgb(252,252,251)" d="M 1418.36 912.14 C 1425.84 912.13 1434.47 915.011 1436.21 922.345 C 1438.45 931.737 1437.82 948.2 1437.79 957.779 C 1437.71 988.836 1438.02 1019.59 1437.59 1050.61 C 1437.44 1061.45 1432.53 1065.26 1422.78 1068.03 C 1420.33 1067.94 1417.77 1067.86 1415.42 1067.1 C 1410.9 1065.64 1407.56 1062.63 1405.78 1058.19 C 1403.27 1051.93 1403.69 942.757 1404.33 929.898 C 1404.49 926.767 1404.58 923.645 1405.94 920.767 C 1408.25 915.897 1413.56 913.679 1418.36 912.14 z"/>
  

  <path transform="translate(0,0)" fill="rgb(0,25,55)" d="M 497.021 887.417 C 535.165 887.791 574.691 887.134 613.035 887.164 C 612.802 898.648 612.876 910.495 612.81 922.011 C 599.732 921.733 586.101 921.918 572.979 921.921 L 573.024 1110.69 L 573.234 1146.87 C 561.119 1146.74 548.647 1146.92 536.501 1146.96 L 536.57 921.636 L 496.92 921.785 L 497.021 887.417 z"/>
  

  <path transform="translate(0,0)" fill="rgb(1,198,80)" d="M 1082.63 886.93 L 1105.99 886.881 C 1105.91 955.934 1105.34 1026.12 1106.13 1095.09 C 1099.55 1095.21 1076.79 1096.22 1072.29 1093.86 L 1071.82 1091.25 C 1071.39 1039.82 1071.39 988.387 1071.82 936.957 C 1062.83 937.39 1053.84 937.736 1044.84 937.996 L 1044.81 914.309 C 1063.5 911.63 1076.58 906.367 1082.63 886.93 z"/>
  

  <path transform="translate(0,0)" fill="rgb(1,198,80)" d="M 1018.29 796.286 C 1025.3 796.25 1032.22 797.983 1038.39 801.324 C 1047.73 806.318 1054.59 814.963 1057.32 825.199 C 1062.7 845.47 1050.68 862.619 1041.56 879.642 C 1034.43 892.96 1026.85 906.148 1019.39 919.288 L 1018.67 919.533 C 1016.14 915.838 1014.17 910.967 1011.95 907.016 C 993.252 873.868 948.332 806.886 1018.29 796.286 z"/>
  

  <path transform="translate(0,0)" fill="rgb(252,252,251)" d="M 1011.97 819.214 C 1021.02 818.041 1029.11 818.454 1034.91 826.495 C 1037.48 830.03 1038.4 834.498 1037.45 838.762 C 1035.89 845.767 1031.74 848.736 1026.18 852.455 C 1004.1 858.224 990.702 832.542 1011.97 819.214 z"/>
  

  <path transform="translate(0,0)" fill="rgb(1,198,80)" d="M 872.994 942.221 C 878.806 941.998 886.141 942.49 892.069 942.74 C 894.319 991.465 892.722 1046.38 893.022 1095.79 C 887.35 1095.67 866.405 1096.61 863.037 1094.71 C 863.448 1057.73 863.013 1019.84 862.996 982.784 L 840.041 983.011 L 839.817 962.421 C 855.586 960.772 865.706 957.254 872.994 942.221 z"/>
  

  <path transform="translate(0,0)" fill="rgb(1,198,80)" d="M 967.037 1211.2 C 976.671 1211.31 986.432 1210.69 994.569 1216.82 C 1004.52 1224.31 1001.24 1235.25 994.495 1243.63 C 986.56 1248.79 976.561 1247.8 967.14 1247.8 L 967.037 1211.2 z"/>
  

  <path transform="translate(0,0)" fill="rgb(252,252,251)" d="M 975.895 1218.79 C 988.26 1218.58 998.183 1224.79 989.657 1237.45 C 985.129 1239.62 981.217 1242.19 976.948 1238.96 C 974.899 1234.19 975.835 1224.65 975.895 1218.79 z"/>
  

  <path transform="translate(0,0)" fill="rgb(1,198,80)" d="M 745.159 1211.24 C 751.986 1211.16 765.975 1210.44 770.811 1215.04 C 772.263 1222.83 763.977 1227.07 773.279 1235.33 C 774.806 1236.68 773.464 1240.92 772.878 1242.91 C 764.684 1249.68 755.779 1248.15 745.292 1247.97 L 745.159 1211.24 z"/>
  

  <path transform="translate(0,0)" fill="rgb(1,198,80)" d="M 1325.4 1211.34 C 1333.45 1211.01 1343.88 1209.84 1350.29 1215.54 C 1357.21 1221.67 1349.46 1228.87 1345.07 1232.58 L 1349.52 1238.99 C 1351.56 1241.88 1353 1243 1352.93 1246.5 C 1350.34 1248.58 1350.63 1247.83 1346.26 1247.71 C 1340.5 1244.69 1341.75 1237.61 1336.97 1234.24 C 1330.76 1235.57 1336.23 1242.85 1332.42 1247.67 C 1328.25 1248.17 1330.11 1248.52 1326.57 1247.1 C 1325.58 1244.63 1325.52 1216.09 1325.4 1211.34 z"/>
  

  <path transform="translate(0,0)" fill="rgb(1,198,80)" d="M 1036.13 1211.43 C 1041.34 1211.16 1055.13 1210.18 1059.33 1211.66 C 1062.04 1214.26 1061.37 1212.76 1061.89 1216.06 C 1056.92 1222.73 1052.3 1216.45 1045.81 1219.59 C 1044.54 1222.89 1044.71 1221.21 1045.54 1224.83 C 1048.26 1226.71 1053.66 1225.81 1057.44 1226.16 C 1060.3 1228.77 1059.59 1227.25 1060.31 1230.49 C 1055.93 1235.09 1050.82 1231.45 1044.99 1233.26 C 1045.06 1235.64 1045.23 1237.64 1045.42 1239.99 C 1050.91 1243.04 1057.51 1238.93 1062.04 1241.94 C 1062.84 1245 1062.86 1243.45 1061.48 1246.72 C 1057.27 1249.21 1042.82 1247.99 1036.67 1247.92 C 1036.56 1235.76 1036.38 1223.59 1036.13 1211.43 z"/>
  

  <path transform="translate(0,0)" fill="rgb(1,198,80)" d="M 1266.9 1211.5 C 1272.69 1211.33 1283.83 1210.08 1288.1 1212.64 C 1289.58 1216.01 1289.52 1214.38 1288.71 1217.65 C 1283.23 1220.87 1275.8 1216.46 1271.93 1221.92 C 1273.7 1230.4 1280.43 1223.51 1287.13 1228.05 C 1288.16 1230.96 1288.34 1229.65 1287.17 1232.13 C 1281.74 1235.35 1276.83 1230.05 1271.86 1235.2 L 1272.96 1239.13 C 1277.43 1242.75 1286.34 1239.2 1290.17 1244.39 L 1289.06 1246.87 C 1285.92 1248.42 1269.55 1247.9 1264.81 1247.92 C 1264.79 1242.08 1263.99 1216.43 1264.84 1212.31 L 1266.9 1211.5 z"/>
  

  <path transform="translate(0,0)" fill="rgb(1,198,80)" d="M 865.623 1211.1 C 871.999 1211.45 886.853 1210.18 890.883 1213.38 C 889.09 1223.87 882.292 1216.22 873.193 1220.47 L 872.834 1222.1 C 877.823 1226.61 884.514 1226.37 889.278 1230.09 L 888.628 1232.02 C 885.448 1233.28 879.004 1233.11 875.312 1233.22 C 873.343 1235.21 873.988 1234.77 873.008 1237.83 C 875.678 1243.26 884.441 1239.34 891.604 1243.1 C 892.297 1250.25 871.72 1247.93 866.062 1247.97 C 865.811 1235.68 865.665 1223.39 865.623 1211.1 z"/>
  

  <path transform="translate(0,0)" fill="rgb(1,198,80)" d="M 1434.75 1211.31 L 1436.46 1211.27 C 1443.7 1211.12 1455.3 1209.44 1459.95 1213.9 C 1460.37 1217.02 1460.64 1215.51 1458.51 1218.44 C 1455.2 1220.08 1450.12 1218.61 1444.77 1219.18 C 1442.18 1221.36 1442.99 1219.98 1442.6 1223.65 C 1446.28 1226.72 1452.04 1225.98 1458.06 1229.15 L 1458.33 1230.65 L 1456.31 1232.54 C 1450.83 1233.33 1448.29 1232.76 1442.85 1232.11 C 1442.98 1237.1 1442.11 1237.11 1444.57 1240.13 C 1450.13 1242.3 1452.96 1241.13 1459.18 1241.42 L 1460.38 1243.01 L 1459.7 1246.39 C 1456.55 1248.01 1440.06 1247.54 1435.01 1247.59 L 1434.75 1211.31 z"/>
  

  <path transform="translate(0,0)" fill="rgb(1,198,80)" d="M 544.943 1236.54 C 546.849 1231.48 552.318 1214.97 555.116 1211.44 C 558.313 1210.92 558.633 1210.66 561.864 1211.35 C 562.861 1214.21 561.377 1215.66 559.866 1219.39 C 555.866 1227.9 552.743 1241.18 547.345 1247.7 C 537.867 1250.4 529.343 1219.23 526.659 1211.21 C 529.961 1210.97 530.686 1210.78 534.007 1211.31 C 539.814 1215.97 541.747 1228.11 544.943 1236.54 z"/>
  

  <path transform="translate(0,0)" fill="rgb(1,198,80)" d="M 1195.12 1210.94 C 1198.47 1210.89 1199.05 1210.87 1202.52 1211.42 C 1208.21 1215.86 1211.09 1229.49 1213.83 1237.37 C 1217.24 1228.74 1218.98 1214.86 1225.27 1210.42 C 1228.73 1210.28 1227.23 1209.75 1229.86 1212.15 C 1230.65 1216.42 1230 1215.78 1227.91 1220.62 C 1224.12 1229.62 1220.97 1237.65 1218.82 1247.19 L 1208.88 1247.64 C 1204.38 1235.37 1199.79 1223.14 1195.12 1210.94 z"/>
  

  <path transform="translate(0,0)" fill="rgb(1,198,80)" d="M 1505.93 1210.17 C 1511.73 1210.91 1515.28 1211.23 1519.77 1214.99 L 1519.5 1216.44 C 1516.07 1218.31 1508.63 1219.32 1503.75 1221.04 L 1503.21 1222.28 C 1505.41 1223.4 1507.59 1224.58 1509.74 1225.8 C 1514.92 1228.81 1520.03 1232.46 1521.59 1238.39 C 1520.41 1244.83 1512.54 1247.63 1506.64 1248.55 C 1501.26 1247.43 1499.91 1247.35 1495.12 1244.92 C 1493.6 1242.64 1494.17 1243.88 1493.97 1240.94 C 1498.8 1235.95 1508.95 1243.76 1512.45 1238.85 C 1508.47 1232.44 1498.56 1231.55 1494.32 1221.66 C 1494.09 1214.22 1500.06 1212.5 1505.93 1210.17 z"/>
  

  <path transform="translate(0,0)" fill="rgb(1,198,80)" d="M 649.132 1211 C 655.65 1210.44 661.34 1210.09 665.508 1215.42 L 664.947 1217.33 C 660.161 1219.76 652.702 1218.18 650.309 1220.96 C 653.551 1227.88 667.102 1229.03 665.8 1240.38 C 662.4 1245.67 658.801 1246.75 652.873 1248.57 C 645.598 1247.36 643.995 1247.07 639.051 1241.8 L 639.132 1240.2 C 641.571 1238.72 641.978 1238.98 644.912 1238.74 C 648.412 1240.44 650.438 1241.87 654.3 1241.69 C 657.12 1239.75 656.353 1241.01 657.107 1238.09 C 652.904 1230.31 624.634 1223.84 649.132 1211 z"/>
  

  <path transform="translate(0,0)" fill="rgb(1,198,80)" d="M 1097.69 1211 C 1101.82 1211.02 1102.05 1210.37 1105.17 1212.1 C 1107.89 1217.58 1105.95 1233.01 1105.93 1240.93 C 1114.81 1240.18 1119.64 1237.69 1121.91 1247.18 C 1116.76 1248.45 1103.51 1248.03 1097.59 1248.03 C 1097.98 1236.25 1097.69 1222.89 1097.69 1211 z"/>
  

  <path transform="translate(0,0)" fill="rgb(1,198,80)" d="M 809.048 1210.94 C 812.626 1210.9 813.51 1210.98 817.067 1211.48 C 818.568 1214.41 817.881 1235.85 817.83 1240.88 C 822.122 1240.61 826.508 1239.92 830.535 1241.1 C 833.376 1243.78 832.483 1242.79 832.976 1247.8 L 809.154 1247.92 L 809.048 1210.94 z"/>
  

  <path transform="translate(0,0)" fill="rgb(1,198,80)" d="M 596.121 1211.03 C 598.821 1211.06 600.44 1211.25 603.1 1211.55 C 606.175 1215.48 604.451 1241.79 604.088 1247.95 C 600.631 1248.08 600.513 1248.09 597.134 1247.41 C 595.146 1242.72 596.048 1217.55 596.121 1211.03 z"/>
  

  <path transform="translate(0,0)" fill="rgb(1,198,80)" d="M 1388.9 1210.86 C 1391.49 1210.9 1393.59 1211.12 1396.14 1211.37 C 1398.36 1214.15 1397.29 1242.18 1397.22 1247.93 C 1393.47 1247.92 1391.98 1248.59 1389.34 1246.91 C 1388.39 1239.33 1388.86 1219.41 1388.9 1210.86 z"/>
  

  <path transform="translate(0,0)" fill="rgb(1,198,80)" d="M 1153.58 1211.09 C 1157.09 1211.1 1158.9 1210.59 1161.74 1212.06 C 1162.91 1220.2 1162.61 1239.17 1162.19 1247.52 C 1158.24 1247.84 1158.36 1248.48 1155.51 1246.9 C 1152.51 1240.44 1153.75 1219.79 1153.58 1211.09 z"/>
  

  <path transform="translate(0,0)" fill="rgb(1,198,80)" d="M 700.939 1210.91 C 703.498 1210.93 705.026 1211.12 707.546 1211.4 C 710.102 1214.19 709.017 1242 708.977 1248.05 C 705.539 1248.16 705.467 1248.16 702.101 1247.45 C 699.776 1242.85 700.863 1217.56 700.939 1210.91 z"/>
  

</svg>
